<svg width="48" height="48" fill="none" xmlns="http://www.w3.org/2000/svg"><path fill="#fff" d="M0 0h48v48H0z"/><path d="M38.5 40.5c0 1.146-1.048 2.645-3.823 3.945C32.022 45.69 28.25 46.5 24 46.5s-8.022-.81-10.677-2.055c-2.775-1.3-3.823-2.8-3.823-3.945 0-1.146 1.048-2.645 3.823-3.945C15.978 35.31 19.75 34.5 24 34.5s8.022.81 10.677 2.055c2.775 1.3 3.823 2.8 3.823 3.945z" stroke="#424242" stroke-width="3"/><path d="M36.5 12.062c0 3.066-1.497 10.101-3.995 16.415-1.243 3.14-2.691 5.99-4.248 8.027C26.651 38.608 25.2 39.5 24 39.5c-1.199 0-2.65-.892-4.257-2.995-1.557-2.038-3.005-4.888-4.248-8.028-2.498-6.314-3.995-13.35-3.995-16.416C11.5 6.431 16.879 1.5 24 1.5s12.5 4.93 12.5 10.562z" fill="#fff" stroke="#424242" stroke-width="3"/><circle cx="24" cy="15" r="4.5" stroke="#FF498B" stroke-width="3"/></svg>